# xmcd
#
# Track frame offsets:
#	150
#	36442
#	52444
#	87518
#	102833
#	126147
#	157346
#	176586
#	199483
#	233533
#	261587
#
# Disc length: 3814 seconds
#
# Revision: 1
# Processed by: cddbd v1.5.2PL0 Copyright (c) Steve Scherf et al.
# Submitted via: audiograbber 1.83.01
#
DISCID=a90ee40b
DTITLE=Grateful Dead - 73-07-01A Universal Amphitheatre. Universal City CA
DYEAR=1900
DGENRE=
TTITLE0=Mississippi Half-Step
TTITLE1=Me and My Uncle
TTITLE2=Sugaree
TTITLE3=The Race Is On
TTITLE4=Brown Eyed Women
TTITLE5=Looks Like Rain
TTITLE6=Don't Ease Me In
TTITLE7=Big River
TTITLE8=China Cat Sunflower
TTITLE9=I Know You Rider
TTITLE10=Around and Around
EXTD=
EXTT0=
EXTT1=
EXTT2=
EXTT3=
EXTT4=
EXTT5=
EXTT6=
EXTT7=
EXTT8=
EXTT9=
EXTT10=
PLAYORDER=
